<svg width="20" height="20" viewBox="0 0 20 20" fill="none" xmlns="http://www.w3.org/2000/svg">
<g clip-path="url(#clip0_1_183)">
<path d="M5 14.1667H0V10.8333H5V14.1667ZM6.66667 0V4.16667H13.3333V0H6.66667ZM0 9.16667H9.16667V5.83333H0V9.16667ZM13.3333 10.8333H6.66667V14.1667H13.3333V10.8333ZM10.8333 5.83333V9.16667H20V5.83333H10.8333ZM15 4.16667H20C20 1.86917 18.1308 0 15.8333 0H15V4.16667ZM10.8333 20H15.8333C18.1308 20 20 18.1308 20 15.8333H10.8333V20ZM9.16667 15.8333H0C0 18.1308 1.86917 20 4.16667 20H9.16667V15.8333ZM5 0H4.16667C1.86917 0 0 1.86917 0 4.16667H5V0ZM20 10.8333H15V14.1667H20V10.8333Z" fill="black"/>
</g>
<defs>
<clipPath id="clip0_1_183">
<rect width="20" height="20" fill="white"/>
</clipPath>
</defs>
</svg>
